<svg width="36" height="36" viewBox="0 0 36 36" fill="none" xmlns="http://www.w3.org/2000/svg">
<path d="M31 5.718H25V9.718H29C29 9.718 31 9.718 31 11.718V23.718C31 25.718 29 25.718 29 25.718H25V29.718H31C33.206 29.718 35 27.924 35 25.718V9.718C35 7.512 33.206 5.718 31 5.718Z" fill="#FFAC33"/>
<path d="M27 6H3V32C3 34.209 4.791 36 7 36H23C25.209 36 27 34.209 27 32V6Z" fill="#FFCC4D"/>
<path d="M8.5 32C7.948 32 7.5 31.553 7.5 31V15C7.5 14.448 7.948 14 8.5 14C9.052 14 9.5 14.448 9.5 15V31C9.5 31.553 9.052 32 8.5 32ZM15 32C14.448 32 14 31.553 14 31V15C14 14.448 14.448 14 15 14C15.552 14 16 14.448 16 15V31C16 31.553 15.552 32 15 32ZM21.5 32C20.947 32 20.5 31.553 20.5 31V15C20.5 14.448 20.947 14 21.5 14C22.053 14 22.5 14.448 22.5 15V31C22.5 31.553 22.053 32 21.5 32Z" fill="#F4900C"/>
<path d="M3 5V12.445C3.59 12.789 4.268 13 5 13C6.674 13 8.104 11.969 8.701 10.509C9.051 10.811 9.502 11 10 11C10.677 11 11.273 10.662 11.635 10.147C12.345 11.258 13.583 12 15 12C16.301 12 17.445 11.369 18.176 10.407C18.54 11.338 19.44 12 20.5 12C21.449 12 22.265 11.465 22.688 10.686L22.835 10.325C23.332 10.596 23.894 10.764 24.5 10.764C25.481 10.764 26.365 10.358 27 9.708V5H3Z" fill="#FFAC33"/>
<path d="M24 0H4C2.343 0 1 1.343 1 3V7C1 9.209 2.791 11 5 11C6.674 11 8.104 9.969 8.701 8.509C9.051 8.811 9.502 9 10 9C10.677 9 11.273 8.662 11.635 8.147C12.345 9.258 13.583 10 15 10C16.301 10 17.445 9.369 18.176 8.407C18.54 9.338 19.44 10 20.5 10C21.449 10 22.265 9.465 22.688 8.686C23.086 8.881 23.527 9 24 9C25.657 9 27 7.657 27 6V3C27 1.343 25.657 0 24 0Z" fill="#EEEEEE"/>
</svg>
